<svg id="Layer_1" data-name="Layer 1" xmlns="http://www.w3.org/2000/svg" xmlns:xlink="http://www.w3.org/1999/xlink" viewBox="0 0 714.2 682.94"><defs><style>.cls-1{fill:url(#linear-gradient);}.cls-2{fill:url(#linear-gradient-2);}.cls-3{fill:url(#linear-gradient-3);}.cls-4{fill:url(#linear-gradient-4);}</style><linearGradient id="linear-gradient" x1="440.66" y1="533.02" x2="897.1" y2="533.02" gradientUnits="userSpaceOnUse"><stop offset="0" stop-color="#09007f"/><stop offset="0.06" stop-color="#0c0d8d"/><stop offset="0.27" stop-color="#1736b5"/><stop offset="0.47" stop-color="#1f56d5"/><stop offset="0.66" stop-color="#256dec"/><stop offset="0.84" stop-color="#297afa"/><stop offset="1" stop-color="#2a7fff"/></linearGradient><linearGradient id="linear-gradient-2" x1="182.9" y1="574.62" x2="620.41" y2="574.62" xlink:href="#linear-gradient"/><linearGradient id="linear-gradient-3" x1="306.35" y1="648.35" x2="827.05" y2="648.35" xlink:href="#linear-gradient"/><linearGradient id="linear-gradient-4" x1="284.04" y1="425.06" x2="798.46" y2="425.06" xlink:href="#linear-gradient"/></defs><path class="cls-1" d="M441.55,681.1c5.19,1.39,11.15,1.59,15.46,4.36,53.15,34.2,110.55,39.42,170.4,24.33,105.38-26.57,186.88-122.63,196.16-231,5.95-69.43-14.87-131.19-56.12-186.61-5.14-6.9-10.24-13.83-15-21,37,25.17,72.94,51.36,96.08,91,62.47,107.07,65.86,215.33,3.55,323.24-33.63,58.24-86.65,91-152.23,103.64-41.27,7.94-82.47,8.45-123.26-3.33-48.21-13.91-86.24-42.83-118.15-80.63-6.13-7.27-11.84-14.89-17.75-22.35Z" transform="translate(-182.9 -198.53)"/><path class="cls-2" d="M356.82,841.61C263.25,799.05,209,725.92,189,626.78c-11.39-56.39-6.87-112,13.67-165.9,29.56-77.53,85.91-124.64,165.85-144.48,47.58-11.81,94.91-12.81,141.68,4,43.94,15.76,79.2,43.8,110.2,77.8-.16.63-.31,1.26-.46,1.89-5.46-.93-11.51-.64-16.28-3-60.12-29.34-121.15-27.69-180.63-1C328,438.71,274.6,514,264.06,617.29c-8,78.31,20.71,145.25,72.9,202.85C343.45,827.3,350.08,834.33,356.82,841.61Z" transform="translate(-182.9 -198.53)"/><path class="cls-3" d="M827.05,745c-1.54,3.38-2.23,5.73-3.54,7.64-32.47,47-74.81,82.07-128.18,102.62-64,24.64-130,33.38-197.77,19.79C413,858.09,356.65,807.42,327.07,727c-17.56-47.79-25.13-97.12-18.13-148,7.25-52.73,31.15-97.2,67.78-135.3,11.06-11.5,22.77-22,38.56-28.42a16.56,16.56,0,0,1-1.19,3c-49.89,72.72-55,150.47-20.77,229.82,38.86,90.12,107.69,146.3,205.2,162.76,82,13.84,155.68-7.57,219.85-60.81,1.71-1.42,3.43-2.85,5.19-4.22C823.85,745.57,824.36,745.6,827.05,745Z" transform="translate(-182.9 -198.53)"/><path class="cls-4" d="M693.3,651.6c6.19-11.79,13.75-23.89,19.14-36.9,15.83-38.2,17.37-78,11.1-118.41-6.88-44.29-22.27-85.41-47.08-122.73-33.58-50.5-81-82-139.34-96.09-67.87-16.36-133.83-9.52-196.55,22.22-20.4,10.32-38.57,24-55.14,39.75L284,338.2c9-11.33,17.63-23.08,27.21-33.94,47.26-53.52,107.11-84.79,176.47-99.14,54.06-11.18,107.16-9,158.09,13.45,62.6,27.65,113,69.73,135.19,136.07,33.11,99.13,21,191.48-52.64,270.82C716.45,638.28,702.75,648.19,693.3,651.6Z" transform="translate(-182.9 -198.53)"/></svg>